<svg xmlns="http://www.w3.org/2000/svg" width="15.063" height="15.5" viewBox="0 0 15.063 15.5">
  <defs>
    <style>
      .cls-1 {
        fill: #fff;
        fill-rule: evenodd;
      }
    </style>
  </defs>
  <path id="_-h-矩形_45_拷贝2" data-name="-h-矩形 45 拷贝2" class="cls-1" d="M53,331H63a2,2,0,0,1,2,2v11a2,2,0,0,1-2,2H53a2,2,0,0,1-2-2V333A2,2,0,0,1,53,331Zm0,4h9v2H53v-2Zm0,4h5v2H53v-2Zm8.988-5.507a11.784,11.784,0,0,1-2.455,1.787,13.324,13.324,0,0,1-3.157,1.073s-0.265,4.654,1.052,7.507a10.448,10.448,0,0,0,4.56,4.647,12.035,12.035,0,0,0,4.56-5c1.237-2.679,1.052-7.149,1.052-7.149A8.524,8.524,0,0,1,61.988,333.493Zm0.03,2a8.3,8.3,0,0,1-1.719,1.311,9.047,9.047,0,0,1-2.21.786,14.876,14.876,0,0,0,.737,5.5,7.466,7.466,0,0,0,3.193,3.408,8.653,8.653,0,0,0,3.193-3.67,14.749,14.749,0,0,0,.737-5.243A5.85,5.85,0,0,1,62.019,335.5Z" transform="translate(-51 -331)"/>
</svg>
