<svg xmlns="http://www.w3.org/2000/svg" width="18.469" height="17.625" viewBox="0 0 18.469 17.625">
  <defs>
    <style>
      .cls-1 {
        fill: #fff;
        fill-rule: evenodd;
      }
    </style>
  </defs>
  <path id="_-h-矩形_12_拷贝" data-name="-h-矩形 12 拷贝" class="cls-1" d="M32.216,185.255h3.978a2,2,0,0,1,2,2v13.5a2,2,0,0,1-2,2H32.216a2,2,0,0,1-2-2v-13.5A2,2,0,0,1,32.216,185.255Zm5.93,2.4H44.28a2,2,0,0,1,2,2v4.033a2,2,0,0,1-2,2H38.145a2,2,0,0,1-2-2v-4.033A2,2,0,0,1,38.145,187.653Zm-4.7,2.518H46.573a1.07,1.07,0,0,1,1.222,1.216l-2,9.352a1.221,1.221,0,0,1-1.237,1.182A14.54,14.54,0,0,1,39.272,203H30l2.254-11.613A1.189,1.189,0,0,1,33.45,190.171Zm0.863,0.959H47.436a1.07,1.07,0,0,1,1.222,1.216l-2,9.352a1.222,1.222,0,0,1-1.237,1.182H31.077l2.04-10.534A1.189,1.189,0,0,1,34.313,191.13Z" transform="translate(-30.219 -185.25)"/>
</svg>
