<svg xmlns="http://www.w3.org/2000/svg" width="13" height="15" viewBox="0 0 13 15">
  <defs>
    <style>
      .cls-1 {
        fill: #fff;
        fill-rule: evenodd;
      }
    </style>
  </defs>
  <path id="矩形_14" data-name="矩形 14" class="cls-1" d="M63,428H76v15H63V428Zm1,5H75v9H64v-9Zm8-5h4v4H72v-4Zm2,2h1v1H74v-1Zm-1-1h1v2H73v-2Zm-3.5,5.5a3,3,0,1,1-3,3A3,3,0,0,1,69.5,434.5Zm0,1.181a1.819,1.819,0,1,1-1.819,1.819A1.819,1.819,0,0,1,69.5,435.681ZM64,429h7v4H64v-4Zm1,1h5v1H65v-1Zm0,2h5v1H65v-1Z" transform="translate(-63 -428)"/>
</svg>
