<svg xmlns="http://www.w3.org/2000/svg" width="16" height="16" viewBox="0 0 16 16">
  <defs>
    <style>
      .cls-1 {
        fill: #fff;
        fill-rule: evenodd;
      }
    </style>
  </defs>
  <path id="椭圆_12" data-name="椭圆 12" class="cls-1" d="M59,607.991a7,7,0,1,1-7,7A7,7,0,0,1,59,607.991Zm0,1.3A5.709,5.709,0,1,1,53.3,615,5.708,5.708,0,0,1,59,609.287ZM59,606a3,3,0,1,1-3,3A3,3,0,0,1,59,606Zm0,1.056A1.944,1.944,0,1,1,57.056,609,1.944,1.944,0,0,1,59,607.056ZM64,616a3,3,0,1,1-3,3A3,3,0,0,1,64,616Zm0,1.056A1.944,1.944,0,1,1,62.056,619,1.944,1.944,0,0,1,64,617.056ZM54,616a3,3,0,1,1-3,3A3,3,0,0,1,54,616Zm0,1.056A1.944,1.944,0,1,1,52.056,619,1.944,1.944,0,0,1,54,617.056ZM59,613a2.563,2.563,0,1,1-2,2.5A2.292,2.292,0,0,1,59,613Zm0,1a1.625,1.625,0,0,1,0,3A1.625,1.625,0,0,1,59,614Z" transform="translate(-51 -606)"/>
</svg>
