<svg xmlns="http://www.w3.org/2000/svg" width="17" height="17" viewBox="0 0 17 17">
  <defs>
    <style>
      .cls-1 {
        fill: #fff;
        fill-rule: evenodd;
      }
    </style>
  </defs>
  <path id="矩形_41" data-name="矩形 41" class="cls-1" d="M53,359H64v1H53v-1Zm2-9h7v3H55v-3Zm0,5h7v3H55v-3Zm-2-7h2v1H53v-1Zm1-1h2v1H54v-1Zm1-1h2v1H55v-1Zm1-1h2v1H56v-1Zm-5,4h2v1H51v-1Zm-1,1h2v1H50v-1Zm15,0h2v1H65v-1Zm-1-1h2v1H64v-1Zm-2-1h2v1H62v-1Zm-1-1h2v1H61v-1Zm-1-1h2v1H60v-1Zm-1-1h2v1H59v-1Zm-2-1h3v1H57v-1Zm1-1h1v1H58v-1Zm6,4h1v2H64v-2Zm-12,2h1v11H52V349Zm12,3h1v8H64v-8Z" transform="translate(-50 -343)"/>
</svg>
