<svg xmlns="http://www.w3.org/2000/svg" width="14" height="14" viewBox="0 0 14 14">
  <defs>
    <style>
      .cls-1 {
        fill: #fff;
        fill-rule: evenodd;
      }
    </style>
  </defs>
  <path id="矩形_46_拷贝" data-name="矩形 46 拷贝" class="cls-1" d="M65,369h7v1H65v-1Zm-2,13h6v1H63v-1Zm0-10H74v1H63v-1Zm11-1h1v5H74v-5Zm-11-1h1v2H63v-2Zm1-1h1v2H64v-2Zm8,0h1v2H72v-2Zm1,1h1v2H73v-2Zm-11,1h1v12H62V371Zm3,4h7v1H65v-1Zm4,5h1v1H69v-1Zm1,1h1v1H70v-1Zm1,1h1v1H71v-1Zm1-1h1v1H72v-1Zm1-1h1v1H73v-1Zm1-1h1v1H74v-1Zm1-1h1v1H75v-1Z" transform="translate(-62 -369)"/>
</svg>
