<svg xmlns="http://www.w3.org/2000/svg" width="14" height="14" viewBox="0 0 14 14">
  <defs>
    <style>
      .cls-1 {
        fill: #fff;
        fill-rule: evenodd;
      }
    </style>
  </defs>
  <path id="矩形_46" data-name="矩形 46" class="cls-1" d="M65,332h7v1H65v-1Zm-2,13h6v1H63v-1Zm0-10H74v1H63v-1Zm11-1h1v5H74v-5Zm-11-1h1v2H63v-2Zm1-1h1v2H64v-2Zm8,0h1v2H72v-2Zm1,1h1v2H73v-2Zm-11,1h1v12H62V334Zm3,4h7v1H65v-1Zm7.5,2a2.5,2.5,0,1,1-2.5,2.5A2.5,2.5,0,0,1,72.5,340Zm0,1.212a1.288,1.288,0,1,1-1.287,1.288A1.288,1.288,0,0,1,72.5,341.212ZM74,344h1v1H74v-1Zm1,1h1v1H75v-1Z" transform="translate(-62 -332)"/>
</svg>
