<svg xmlns="http://www.w3.org/2000/svg" width="15" height="21" viewBox="0 0 15 21">
  <defs>
    <style>
      .cls-1 {
        fill: #fff;
        fill-rule: evenodd;
      }
    </style>
  </defs>
  <path id="椭圆_4" data-name="椭圆 4" class="cls-1" d="M58.5,416a3.5,3.5,0,1,1-3.5,3.5A3.5,3.5,0,0,1,58.5,416ZM51,430h7v1H51v-1Zm7.492-6.984A7.009,7.009,0,1,1,51,430.008,7.254,7.254,0,0,1,58.492,423.016Zm0,1.459a5.546,5.546,0,1,1-5.929,5.533A5.741,5.741,0,0,1,58.492,424.475ZM51,431H66v6H51v-6Zm8-8h7v8H59v-8Zm3.5,1a3.5,3.5,0,1,1-3.5,3.5A3.5,3.5,0,0,1,62.5,424Zm0,2.179a1.321,1.321,0,1,1-1.321,1.321A1.321,1.321,0,0,1,62.5,426.179Zm2-2.971a1.292,1.292,0,1,1-1.292,1.292A1.292,1.292,0,0,1,64.5,423.208Zm0,6a1.292,1.292,0,1,1-1.292,1.292A1.292,1.292,0,0,1,64.5,429.208Zm-4-6a1.292,1.292,0,1,1-1.292,1.292A1.292,1.292,0,0,1,60.5,423.208Zm0,6a1.292,1.292,0,1,1-1.292,1.292A1.292,1.292,0,0,1,60.5,429.208Zm6-3a1.292,1.292,0,1,1-1.292,1.292A1.292,1.292,0,0,1,66.5,426.208Zm-8,0a1.292,1.292,0,1,1-1.292,1.292A1.292,1.292,0,0,1,58.5,426.208Z" transform="translate(-51 -416)"/>
</svg>
