<svg xmlns="http://www.w3.org/2000/svg" width="14" height="16" viewBox="0 0 14 16">
  <defs>
    <style>
      .cls-1 {
        fill: #fff;
        fill-rule: evenodd;
      }
    </style>
  </defs>
  <path id="椭圆_13" data-name="椭圆 13" class="cls-1" d="M58,654a4,4,0,1,1-4,4A4,4,0,0,1,58,654Zm0,0.994A3.006,3.006,0,1,1,54.994,658,3.006,3.006,0,0,1,58,654.994ZM54,663h8a3,3,0,0,1,3,3v1a3,3,0,0,1-3,3H54a3,3,0,0,1-3-3v-1A3,3,0,0,1,54,663Zm0.5,1h7a2.5,2.5,0,0,1,0,5h-7A2.5,2.5,0,0,1,54.5,664Z" transform="translate(-51 -654)"/>
</svg>
