<svg xmlns="http://www.w3.org/2000/svg" width="13" height="15" viewBox="0 0 13 15">
  <defs>
    <style>
      .cls-1 {
        fill: #fff;
        fill-rule: evenodd;
      }
    </style>
  </defs>
  <path id="矩形_49_拷贝" data-name="矩形 49 拷贝" class="cls-1" d="M63,466H76v1H63v-1Zm0,1h1v11H63V467Zm12,0h1v11H75V467ZM63,477H76v1H63v-1Zm0,3H76v1H63v-1Zm6.5-11a3.5,3.5,0,1,1-3.5,3.5A3.5,3.5,0,0,1,69.5,469Zm0,1.348a2.152,2.152,0,1,1-2.152,2.152A2.152,2.152,0,0,1,69.5,470.348Z" transform="translate(-63 -466)"/>
</svg>
